<?xml version="1.0" encoding="UTF-8"?>
<!DOCTYPE svg PUBLIC "-//W3C//DTD SVG 1.1//EN" "http://www.w3.org/Graphics/SVG/1.1/DTD/svg11.dtd">
<svg xmlns="http://www.w3.org/2000/svg" version="1.1" width="2048px" height="2048px" style="shape-rendering:geometricPrecision; text-rendering:geometricPrecision; image-rendering:optimizeQuality; fill-rule:evenodd; clip-rule:evenodd" xmlns:xlink="http://www.w3.org/1999/xlink">
<g><path style="opacity:0.987" fill="#010101" d="M 1022.5,144.5 C 1024.02,144.511 1025.18,145.177 1026,146.5C 1056.35,210.21 1085.35,274.543 1113,339.5C 1167.11,469.158 1222.78,598.158 1280,726.5C 1284.28,736.234 1289.45,745.4 1295.5,754C 1341.2,776.685 1387.54,798.019 1434.5,818C 1554.07,868.449 1673.4,919.449 1792.5,971C 1824.29,985.059 1855.95,999.393 1887.5,1014C 1892.87,1016.68 1897.87,1019.85 1902.5,1023.5C 1902.02,1024.48 1901.36,1025.31 1900.5,1026C 1867.86,1042.15 1834.86,1057.49 1801.5,1072C 1679.49,1125.11 1557.16,1177.45 1434.5,1229C 1387.54,1248.98 1341.2,1270.31 1295.5,1293C 1289.78,1300.93 1284.95,1309.43 1281,1318.5C 1272,1338.17 1263,1357.83 1254,1377.5C 1192.94,1518.67 1132.28,1660 1072,1801.5C 1057.82,1834.19 1042.82,1866.53 1027,1898.5C 1024.67,1903.83 1022.33,1903.83 1020,1898.5C 1004.18,1866.53 989.179,1834.19 975,1801.5C 921.667,1676.83 868.333,1552.17 815,1427.5C 795.745,1382.99 775.411,1338.99 754,1295.5C 752.442,1293.64 750.609,1292.14 748.5,1291C 728.955,1281.39 709.288,1272.06 689.5,1263C 541.582,1199.14 393.582,1135.47 245.5,1072C 212.807,1057.82 180.473,1042.82 148.5,1027C 143.167,1024.67 143.167,1022.33 148.5,1020C 180.473,1004.18 212.807,989.179 245.5,975C 393.066,912.217 540.399,848.884 687.5,785C 707.955,775.606 728.288,765.94 748.5,756C 750.609,754.859 752.442,753.359 754,751.5C 776.685,705.796 798.019,659.462 818,612.5C 868.449,492.935 919.449,373.601 971,254.5C 984.726,223.381 998.726,192.381 1013,161.5C 1015.67,155.483 1018.84,149.816 1022.5,144.5 Z M 1010.5,901.5 C 1062.31,897.821 1101.81,917.821 1129,961.5C 1147.92,997.096 1150.25,1033.76 1136,1071.5C 1114.12,1118.62 1077.12,1143.29 1025,1145.5C 978.311,1143.16 942.311,1122.5 917,1083.5C 896.207,1045.69 895.207,1007.36 914,968.5C 935.546,930.969 967.712,908.636 1010.5,901.5 Z"/></g>
<g><path style="opacity:1" fill="#808080" d="M 1012.5,341.5 C 1012.5,503.833 1012.5,666.167 1012.5,828.5C 1002.99,828.173 993.652,828.506 984.5,829.5C 968.77,832.029 953.77,836.863 939.5,844C 922.397,853.301 905.23,862.468 888,871.5C 850.54,835.04 813.373,798.207 776.5,761C 829.796,635.573 882.962,510.073 936,384.5C 959.859,327.785 984.526,271.452 1010,215.5C 1010.33,216.167 1010.67,216.833 1011,217.5C 1012.28,258.823 1012.78,300.156 1012.5,341.5 Z"/></g>
<g><path style="opacity:1" fill="#808080" d="M 1060.5,829.5 C 1052.02,828.507 1043.35,828.174 1034.5,828.5C 1034.5,676.833 1034.5,525.167 1034.5,373.5C 1034.19,321.813 1035.02,270.146 1037,218.5C 1037.32,216.699 1037.98,216.366 1039,217.5C 1116.31,398.624 1193.48,579.791 1270.5,761C 1233.63,798.207 1196.46,835.04 1159,871.5C 1139.88,860.688 1120.38,850.522 1100.5,841C 1087.68,835.297 1074.35,831.463 1060.5,829.5 Z"/></g>
<g><path style="opacity:1" fill="#5e5e5e" d="M 1034.5,373.5 C 1034.5,525.167 1034.5,676.833 1034.5,828.5C 1043.35,828.174 1052.02,828.507 1060.5,829.5C 1051.5,829.5 1042.5,829.5 1033.5,829.5C 1033.17,677.332 1033.5,525.332 1034.5,373.5 Z"/></g>
<g><path style="opacity:1" fill="#5b5b5b" d="M 1012.5,341.5 C 1013.5,503.999 1013.83,666.666 1013.5,829.5C 1003.83,829.5 994.167,829.5 984.5,829.5C 993.652,828.506 1002.99,828.173 1012.5,828.5C 1012.5,666.167 1012.5,503.833 1012.5,341.5 Z"/></g>
<g><path style="opacity:1" fill="#808080" d="M 1625.5,1012.5 C 1489.83,1012.5 1354.17,1012.5 1218.5,1012.5C 1218.83,1002.99 1218.49,993.652 1217.5,984.5C 1214.97,968.768 1210.14,953.768 1203,939.5C 1193.7,922.397 1184.53,905.23 1175.5,888C 1211.71,850.458 1248.54,813.625 1286,777.5C 1467.67,853.084 1648.84,929.917 1829.5,1008C 1829.83,1008.33 1830.17,1008.67 1830.5,1009C 1829.5,1009.33 1828.5,1009.67 1827.5,1010C 1760.18,1011.88 1692.85,1012.72 1625.5,1012.5 Z"/></g>
<g><path style="opacity:1" fill="#808080" d="M 829.5,984.5 C 828.506,993.652 828.173,1002.99 828.5,1012.5C 768.833,1012.5 709.167,1012.5 649.5,1012.5C 545.496,1012.79 441.496,1012.29 337.5,1011C 306.798,1010.47 276.131,1009.13 245.5,1007C 239.503,1006.8 233.837,1005.47 228.5,1003C 403.897,926.421 580.063,851.588 757,778.5C 759.39,779.278 761.557,780.445 763.5,782C 770.686,787.763 777.686,793.763 784.5,800C 813.333,828.833 842.167,857.667 871,886.5C 871.667,887.5 871.667,888.5 871,889.5C 856.795,913.576 844.462,938.576 834,964.5C 831.866,971.036 830.366,977.703 829.5,984.5 Z"/></g>
<g><path style="opacity:1" fill="#7f7f7f" d="M 1008.5,843.5 C 1038.06,844.179 1066.73,849.679 1094.5,860C 1144.33,882.503 1177.16,920.003 1193,972.5C 1208.43,1033.29 1197.43,1088.63 1160,1138.5C 1127.6,1175.28 1086.77,1195.45 1037.5,1199C 960.409,1202.38 902.576,1170.88 864,1104.5C 853.979,1085.43 848.646,1065.1 848,1043.5C 846.222,1015.72 848.889,988.388 856,961.5C 861.435,945.094 869.768,930.428 881,917.5C 898.803,896.686 919.303,879.186 942.5,865C 950.481,860.509 958.815,856.842 967.5,854C 981.535,851.433 995.202,847.933 1008.5,843.5 Z M 1010.5,901.5 C 967.712,908.636 935.546,930.969 914,968.5C 895.207,1007.36 896.207,1045.69 917,1083.5C 942.311,1122.5 978.311,1143.16 1025,1145.5C 1077.12,1143.29 1114.12,1118.62 1136,1071.5C 1150.25,1033.76 1147.92,997.096 1129,961.5C 1101.81,917.821 1062.31,897.821 1010.5,901.5 Z"/></g>
<g><path style="opacity:0.986" fill="#020202" d="M 1013.5,880.5 C 1050.98,879.38 1083.98,890.88 1112.5,915C 1140.88,939.721 1158.72,970.554 1166,1007.5C 1168.66,1037.21 1162.32,1064.88 1147,1090.5C 1126.97,1125.27 1097.81,1148.77 1059.5,1161C 990.412,1173.37 937.246,1149.87 900,1090.5C 866.874,1023.22 878.374,964.715 934.5,915C 957.493,895.836 983.827,884.336 1013.5,880.5 Z M 1010.5,901.5 C 967.712,908.636 935.546,930.969 914,968.5C 895.207,1007.36 896.207,1045.69 917,1083.5C 942.311,1122.5 978.311,1143.16 1025,1145.5C 1077.12,1143.29 1114.12,1118.62 1136,1071.5C 1150.25,1033.76 1147.92,997.096 1129,961.5C 1101.81,917.821 1062.31,897.821 1010.5,901.5 Z"/></g>
<g><path style="opacity:1" fill="#454545" d="M 829.5,984.5 C 829.5,994.167 829.5,1003.83 829.5,1013.5C 769.331,1013.83 709.331,1013.5 649.5,1012.5C 709.167,1012.5 768.833,1012.5 828.5,1012.5C 828.173,1002.99 828.506,993.652 829.5,984.5 Z"/></g>
<g><path style="opacity:1" fill="#5c5c5c" d="M 1217.5,984.5 C 1218.49,993.652 1218.83,1002.99 1218.5,1012.5C 1354.17,1012.5 1489.83,1012.5 1625.5,1012.5C 1489.67,1013.5 1353.67,1013.83 1217.5,1013.5C 1217.5,1003.83 1217.5,994.167 1217.5,984.5 Z"/></g>
<g><path style="opacity:1" fill="#585858" d="M 368.5,1034.5 C 521.999,1033.5 675.666,1033.17 829.5,1033.5C 829.5,1042.5 829.5,1051.5 829.5,1060.5C 828.507,1052.02 828.174,1043.35 828.5,1034.5C 675.167,1034.5 521.833,1034.5 368.5,1034.5 Z"/></g>
<g><path style="opacity:1" fill="#808080" d="M 368.5,1034.5 C 521.833,1034.5 675.167,1034.5 828.5,1034.5C 828.174,1043.35 828.507,1052.02 829.5,1060.5C 831.465,1074.36 835.298,1087.69 841,1100.5C 851.032,1120.06 861.198,1139.56 871.5,1159C 835.04,1196.46 798.207,1233.63 761,1270.5C 579.791,1193.48 398.624,1116.31 217.5,1039C 216.366,1037.98 216.699,1037.32 218.5,1037C 268.48,1035.02 318.48,1034.19 368.5,1034.5 Z"/></g>
<g><path style="opacity:1" fill="#808080" d="M 1323.5,1033.5 C 1466.17,1033.2 1608.84,1033.7 1751.5,1035C 1777.87,1035.2 1804.2,1036.2 1830.5,1038C 1796.77,1053.53 1762.77,1068.53 1728.5,1083C 1580.7,1144.82 1433.2,1207.32 1286,1270.5C 1248.79,1233.63 1211.96,1196.46 1175.5,1159C 1186.06,1138.72 1196.23,1118.22 1206,1097.5C 1213,1081.17 1217.33,1064.17 1219,1046.5C 1222.35,1042.74 1226.51,1040.41 1231.5,1039.5C 1236.43,1038.26 1241.43,1037.43 1246.5,1037C 1272.3,1035.33 1297.97,1034.17 1323.5,1033.5 Z"/></g>
<g><path style="opacity:1" fill="#808080" d="M 984.5,1217.5 C 993.652,1218.49 1002.99,1218.83 1012.5,1218.5C 1012.5,1362.5 1012.5,1506.5 1012.5,1650.5C 1012.77,1709.52 1011.94,1768.52 1010,1827.5C 1009.67,1828.5 1009.33,1829.5 1009,1830.5C 987.467,1782.76 966.467,1734.76 946,1686.5C 889.629,1552.93 833.129,1419.43 776.5,1286C 812.557,1249.28 849.223,1213.28 886.5,1178C 887.833,1177.33 889.167,1177.33 890.5,1178C 909.555,1188.19 928.888,1197.86 948.5,1207C 960.136,1211.82 972.136,1215.32 984.5,1217.5 Z"/></g>
<g><path style="opacity:1" fill="#808080" d="M 1034.5,1651.5 C 1034.5,1507.17 1034.5,1362.83 1034.5,1218.5C 1042.68,1218.83 1050.68,1218.49 1058.5,1217.5C 1071.56,1215.57 1084.23,1212.07 1096.5,1207C 1114.65,1197.43 1132.98,1188.09 1151.5,1179C 1153.75,1177.85 1156.09,1177.52 1158.5,1178C 1168.87,1186.19 1178.87,1194.86 1188.5,1204C 1215.83,1231.33 1243.17,1258.67 1270.5,1286C 1194.03,1467.44 1116.86,1648.61 1039,1829.5C 1038.67,1829.83 1038.33,1830.17 1038,1830.5C 1037.67,1829.17 1037.33,1827.83 1037,1826.5C 1035.09,1768.18 1034.25,1709.85 1034.5,1651.5 Z"/></g>
<g><path style="opacity:1" fill="#5c5c5c" d="M 984.5,1217.5 C 994.167,1217.5 1003.83,1217.5 1013.5,1217.5C 1013.83,1362 1013.5,1506.33 1012.5,1650.5C 1012.5,1506.5 1012.5,1362.5 1012.5,1218.5C 1002.99,1218.83 993.652,1218.49 984.5,1217.5 Z"/></g>
<g><path style="opacity:1" fill="#5d5d5d" d="M 1058.5,1217.5 C 1050.68,1218.49 1042.68,1218.83 1034.5,1218.5C 1034.5,1362.83 1034.5,1507.17 1034.5,1651.5C 1033.5,1507 1033.17,1362.33 1033.5,1217.5C 1041.83,1217.5 1050.17,1217.5 1058.5,1217.5 Z"/></g>
</svg>
